<svg width="180" height="40" viewBox="0 0 180 40" fill="none" xmlns="http://www.w3.org/2000/svg">
<path d="M27.6 14.6C27.6 16.5626 26.8204 18.4448 25.4326 19.8325C24.0449 21.2203 22.1627 22 20.2 22C18.2374 22 16.3552 21.2203 14.9675 19.8325C13.5797 18.4448 12.8 16.5626 12.8 14.6C12.8 12.6373 13.5797 10.7551 14.9675 9.36736C16.3552 7.97959 18.2374 7.19995 20.2 7.19995C22.1627 7.19995 24.0449 7.97959 25.4326 9.36736C26.8204 10.7551 27.6 12.6373 27.6 14.6Z" fill="#315818"/>
<path fill-rule="evenodd" clip-rule="evenodd" d="M0 20C0 14.6957 2.10714 9.60859 5.85786 5.85786C9.60859 2.10714 14.6957 0 20 0C25.3043 0 30.3914 2.10714 34.1421 5.85786C37.8929 9.60859 40 14.6957 40 20C40 25.3043 37.8929 30.3914 34.1421 34.1421C30.3914 37.8929 25.3043 40 20 40C14.6957 40 9.60859 37.8929 5.85786 34.1421C2.10714 30.3914 0 25.3043 0 20ZM20 2.5C16.7044 2.50018 13.4759 3.43091 10.686 5.18507C7.8961 6.93923 5.65821 9.44553 4.22991 12.4155C2.80161 15.3854 2.24097 18.6983 2.6125 21.9729C2.98403 25.2474 4.27263 28.3505 6.33 30.925C8.105 28.065 12.0125 25 20 25C27.9875 25 31.8925 28.0625 33.67 30.925C35.7274 28.3505 37.016 25.2474 37.3875 21.9729C37.759 18.6983 37.1984 15.3854 35.7701 12.4155C34.3418 9.44553 32.1039 6.93923 29.314 5.18507C26.5241 3.43091 23.2956 2.50018 20 2.5Z" fill="#315818"/>
<path d="M65.1023 8.90909C65.1023 10.0062 64.8968 10.9458 64.4858 11.728C64.0781 12.5069 63.5213 13.1035 62.8153 13.5178C62.1127 13.9321 61.3156 14.1392 60.424 14.1392C59.5324 14.1392 58.7337 13.9321 58.0277 13.5178C57.325 13.1001 56.7682 12.5019 56.3572 11.723C55.9496 10.9408 55.7457 10.0028 55.7457 8.90909C55.7457 7.81203 55.9496 6.87405 56.3572 6.09517C56.7682 5.31297 57.325 4.71473 58.0277 4.30043C58.7337 3.88613 59.5324 3.67898 60.424 3.67898C61.3156 3.67898 62.1127 3.88613 62.8153 4.30043C63.5213 4.71473 64.0781 5.31297 64.4858 6.09517C64.8968 6.87405 65.1023 7.81203 65.1023 8.90909ZM63.2479 8.90909C63.2479 8.13684 63.1269 7.48556 62.8849 6.95526C62.6463 6.42164 62.3149 6.01894 61.8906 5.74716C61.4664 5.47206 60.9775 5.33452 60.424 5.33452C59.8705 5.33452 59.3816 5.47206 58.9574 5.74716C58.5331 6.01894 58.2 6.42164 57.9581 6.95526C57.7195 7.48556 57.6001 8.13684 57.6001 8.90909C57.6001 9.68134 57.7195 10.3343 57.9581 10.8679C58.2 11.3982 58.5331 11.8009 58.9574 12.076C59.3816 12.3478 59.8705 12.4837 60.424 12.4837C60.9775 12.4837 61.4664 12.3478 61.8906 12.076C62.3149 11.8009 62.6463 11.3982 62.8849 10.8679C63.1269 10.3343 63.2479 9.68134 63.2479 8.90909ZM68.5662 3.81818V14H66.7665V3.81818H68.5662ZM72.6143 14.1541C72.1304 14.1541 71.6946 14.0679 71.3068 13.8956C70.9223 13.7199 70.6174 13.4614 70.392 13.12C70.17 12.7786 70.0589 12.3577 70.0589 11.8572C70.0589 11.4264 70.1385 11.0701 70.2976 10.7884C70.4567 10.5066 70.6738 10.2812 70.9489 10.1122C71.224 9.94318 71.5339 9.81558 71.8786 9.7294C72.2266 9.63991 72.5862 9.57528 72.9574 9.53551C73.4048 9.48911 73.7678 9.44768 74.0462 9.41122C74.3246 9.37145 74.5268 9.31179 74.6527 9.23224C74.782 9.14938 74.8466 9.02178 74.8466 8.84943V8.8196C74.8466 8.44508 74.7356 8.15507 74.5135 7.94957C74.2914 7.74408 73.9716 7.64134 73.554 7.64134C73.1132 7.64134 72.7635 7.73745 72.505 7.92969C72.2498 8.12192 72.0774 8.34896 71.9879 8.6108L70.3075 8.37216C70.4401 7.90814 70.6589 7.52036 70.9638 7.20881C71.2687 6.89394 71.6416 6.65862 72.0824 6.50284C72.5232 6.34375 73.0104 6.2642 73.544 6.2642C73.9119 6.2642 74.2782 6.30729 74.6428 6.39347C75.0073 6.47964 75.3404 6.62216 75.642 6.82102C75.9437 7.01657 76.1856 7.28338 76.3679 7.62145C76.5535 7.95952 76.6463 8.3821 76.6463 8.8892V14H74.9162V12.951H74.8565C74.7472 13.1631 74.593 13.362 74.3942 13.5476C74.1986 13.7299 73.9517 13.8774 73.6534 13.9901C73.3584 14.0994 73.0121 14.1541 72.6143 14.1541ZM73.0817 12.8317C73.4429 12.8317 73.7562 12.7604 74.0213 12.6179C74.2865 12.4721 74.4903 12.2798 74.6328 12.0412C74.7786 11.8026 74.8516 11.5424 74.8516 11.2607V10.3608C74.7952 10.4072 74.6991 10.4503 74.5632 10.4901C74.4306 10.5298 74.2815 10.5646 74.1158 10.5945C73.95 10.6243 73.786 10.6508 73.6236 10.674C73.4612 10.6972 73.3203 10.7171 73.201 10.7337C72.9325 10.7701 72.6922 10.8298 72.4801 10.9126C72.268 10.9955 72.1006 11.1115 71.978 11.2607C71.8554 11.4065 71.794 11.5954 71.794 11.8274C71.794 12.1589 71.915 12.4091 72.157 12.5781C72.3989 12.7472 72.7071 12.8317 73.0817 12.8317ZM72.9325 5.35938L74.0462 3.08736H75.8061L74.2798 5.35938H72.9325ZM80.5689 12.608L80.5043 13.1548C80.4579 13.5724 80.375 13.9967 80.2557 14.4276C80.1397 14.8617 80.017 15.2611 79.8878 15.6257C79.7585 15.9903 79.6541 16.277 79.5746 16.4858H78.3615C78.4079 16.2836 78.4709 16.0085 78.5504 15.6605C78.6333 15.3125 78.7128 14.9214 78.7891 14.4872C78.8653 14.053 78.9167 13.6122 78.9432 13.1648L78.978 12.608H80.5689ZM89.611 6.36364V7.75568H85.0968V6.36364H89.611ZM86.2253 14V5.64276C86.2253 5.12902 86.3314 4.70147 86.5435 4.36008C86.7589 4.0187 87.0473 3.76349 87.4086 3.59446C87.7698 3.42543 88.1709 3.34091 88.6117 3.34091C88.9232 3.34091 89.2 3.36577 89.4419 3.41548C89.6839 3.4652 89.8629 3.50994 89.9789 3.54972L89.6209 4.94176C89.5447 4.91856 89.4486 4.89536 89.3326 4.87216C89.2166 4.84564 89.0873 4.83239 88.9448 4.83239C88.61 4.83239 88.373 4.91359 88.2338 5.07599C88.098 5.23508 88.03 5.46378 88.03 5.76207V14H86.2253ZM92.9581 14.1541C92.4742 14.1541 92.0384 14.0679 91.6506 13.8956C91.2661 13.7199 90.9612 13.4614 90.7358 13.12C90.5137 12.7786 90.4027 12.3577 90.4027 11.8572C90.4027 11.4264 90.4822 11.0701 90.6413 10.7884C90.8004 10.5066 91.0175 10.2812 91.2926 10.1122C91.5677 9.94318 91.8776 9.81558 92.2223 9.7294C92.5703 9.63991 92.9299 9.57528 93.3011 9.53551C93.7486 9.48911 94.1115 9.44768 94.3899 9.41122C94.6683 9.37145 94.8705 9.31179 94.9964 9.23224C95.1257 9.14938 95.1903 9.02178 95.1903 8.84943V8.8196C95.1903 8.44508 95.0793 8.15507 94.8572 7.94957C94.6352 7.74408 94.3153 7.64134 93.8977 7.64134C93.4569 7.64134 93.1072 7.73745 92.8487 7.92969C92.5935 8.12192 92.4212 8.34896 92.3317 8.6108L90.6513 8.37216C90.7839 7.90814 91.0026 7.52036 91.3075 7.20881C91.6125 6.89394 91.9853 6.65862 92.4261 6.50284C92.867 6.34375 93.3542 6.2642 93.8878 6.2642C94.2557 6.2642 94.6219 6.30729 94.9865 6.39347C95.3511 6.47964 95.6842 6.62216 95.9858 6.82102C96.2874 7.01657 96.5294 7.28338 96.7116 7.62145C96.8973 7.95952 96.9901 8.3821 96.9901 8.8892V14H95.2599V12.951H95.2003C95.0909 13.1631 94.9368 13.362 94.7379 13.5476C94.5424 13.7299 94.2955 13.8774 93.9972 13.9901C93.7022 14.0994 93.3558 14.1541 92.9581 14.1541ZM93.4254 12.8317C93.7867 12.8317 94.0999 12.7604 94.3651 12.6179C94.6302 12.4721 94.834 12.2798 94.9766 12.0412C95.1224 11.8026 95.1953 11.5424 95.1953 11.2607V10.3608C95.139 10.4072 95.0429 10.4503 94.907 10.4901C94.7744 10.5298 94.6252 10.5646 94.4595 10.5945C94.2938 10.6243 94.1297 10.6508 93.9673 10.674C93.8049 10.6972 93.6641 10.7171 93.5447 10.7337C93.2763 10.7701 93.036 10.8298 92.8239 10.9126C92.6117 10.9955 92.4444 11.1115 92.3217 11.2607C92.1991 11.4065 92.1378 11.5954 92.1378 11.8274C92.1378 12.1589 92.2588 12.4091 92.5007 12.5781C92.7427 12.7472 93.0509 12.8317 93.4254 12.8317ZM102.131 14.1491C101.368 14.1491 100.714 13.9818 100.167 13.647C99.6233 13.3123 99.2041 12.8499 98.9091 12.2599C98.6174 11.6667 98.4716 10.9839 98.4716 10.2116C98.4716 9.43608 98.6207 8.75166 98.919 8.15838C99.2173 7.56179 99.6383 7.09777 100.182 6.76633C100.729 6.43158 101.375 6.2642 102.121 6.2642C102.741 6.2642 103.289 6.37855 103.766 6.60724C104.247 6.83262 104.63 7.15246 104.915 7.56676C105.2 7.97775 105.362 8.45833 105.402 9.00852H103.682C103.612 8.64062 103.446 8.33404 103.185 8.08878C102.926 7.8402 102.58 7.71591 102.146 7.71591C101.778 7.71591 101.455 7.81534 101.176 8.0142C100.898 8.20975 100.681 8.49148 100.525 8.85938C100.372 9.22727 100.296 9.66809 100.296 10.1818C100.296 10.7022 100.372 11.1496 100.525 11.5241C100.677 11.8954 100.891 12.1821 101.166 12.3842C101.445 12.5831 101.771 12.6825 102.146 12.6825C102.411 12.6825 102.648 12.6328 102.857 12.5334C103.069 12.4306 103.246 12.2831 103.388 12.0909C103.531 11.8987 103.629 11.665 103.682 11.3899H105.402C105.359 11.9302 105.2 12.4091 104.925 12.8267C104.65 13.241 104.275 13.5658 103.801 13.8011C103.327 14.0331 102.77 14.1491 102.131 14.1491ZM101.614 13.9602H102.588L102.509 14.3828C102.82 14.4292 103.084 14.5485 103.299 14.7408C103.518 14.9363 103.627 15.2164 103.627 15.581C103.63 16.0516 103.42 16.4295 102.996 16.7145C102.571 16.9995 101.967 17.142 101.181 17.142L101.161 16.2571C101.542 16.2571 101.846 16.2057 102.071 16.103C102.296 16.0036 102.411 15.8445 102.414 15.6257C102.421 15.4136 102.341 15.2578 102.175 15.1584C102.013 15.0623 101.754 14.996 101.4 14.9595L101.614 13.9602ZM109.077 14.1541C108.593 14.1541 108.157 14.0679 107.77 13.8956C107.385 13.7199 107.08 13.4614 106.855 13.12C106.633 12.7786 106.522 12.3577 106.522 11.8572C106.522 11.4264 106.601 11.0701 106.76 10.7884C106.92 10.5066 107.137 10.2812 107.412 10.1122C107.687 9.94318 107.997 9.81558 108.341 9.7294C108.689 9.63991 109.049 9.57528 109.42 9.53551C109.868 9.48911 110.231 9.44768 110.509 9.41122C110.787 9.37145 110.99 9.31179 111.116 9.23224C111.245 9.14938 111.309 9.02178 111.309 8.84943V8.8196C111.309 8.44508 111.198 8.15507 110.976 7.94957C110.754 7.74408 110.434 7.64134 110.017 7.64134C109.576 7.64134 109.226 7.73745 108.968 7.92969C108.713 8.12192 108.54 8.34896 108.451 8.6108L106.77 8.37216C106.903 7.90814 107.122 7.52036 107.427 7.20881C107.732 6.89394 108.104 6.65862 108.545 6.50284C108.986 6.34375 109.473 6.2642 110.007 6.2642C110.375 6.2642 110.741 6.30729 111.106 6.39347C111.47 6.47964 111.803 6.62216 112.105 6.82102C112.407 7.01657 112.648 7.28338 112.831 7.62145C113.016 7.95952 113.109 8.3821 113.109 8.8892V14H111.379V12.951H111.319C111.21 13.1631 111.056 13.362 110.857 13.5476C110.662 13.7299 110.415 13.8774 110.116 13.9901C109.821 14.0994 109.475 14.1541 109.077 14.1541ZM109.545 12.8317C109.906 12.8317 110.219 12.7604 110.484 12.6179C110.749 12.4721 110.953 12.2798 111.096 12.0412C111.242 11.8026 111.314 11.5424 111.314 11.2607V10.3608C111.258 10.4072 111.162 10.4503 111.026 10.4901C110.894 10.5298 110.744 10.5646 110.579 10.5945C110.413 10.6243 110.249 10.6508 110.086 10.674C109.924 10.6972 109.783 10.7171 109.664 10.7337C109.395 10.7701 109.155 10.8298 108.943 10.9126C108.731 10.9955 108.564 11.1115 108.441 11.2607C108.318 11.4065 108.257 11.5954 108.257 11.8274C108.257 12.1589 108.378 12.4091 108.62 12.5781C108.862 12.7472 109.17 12.8317 109.545 12.8317ZM124.427 8.3821L122.786 8.56108C122.74 8.39536 122.659 8.23958 122.543 8.09375C122.43 7.94792 122.278 7.83026 122.085 7.74077C121.893 7.65128 121.658 7.60653 121.379 7.60653C121.005 7.60653 120.69 7.68774 120.435 7.85014C120.183 8.01255 120.059 8.22301 120.062 8.48153C120.059 8.7036 120.14 8.88423 120.306 9.02344C120.475 9.16264 120.753 9.27699 121.141 9.36648L122.443 9.64489C123.166 9.80066 123.703 10.0476 124.054 10.3857C124.409 10.7237 124.588 11.1662 124.591 11.7131C124.588 12.1937 124.447 12.6179 124.169 12.9858C123.893 13.3504 123.511 13.6354 123.02 13.8409C122.53 14.0464 121.966 14.1491 121.33 14.1491C120.395 14.1491 119.643 13.9536 119.073 13.5625C118.503 13.1681 118.163 12.6196 118.053 11.9169L119.808 11.7479C119.888 12.0926 120.057 12.3527 120.316 12.5284C120.574 12.7041 120.91 12.7919 121.325 12.7919C121.752 12.7919 122.095 12.7041 122.354 12.5284C122.616 12.3527 122.747 12.1357 122.747 11.8771C122.747 11.6584 122.662 11.4777 122.493 11.3352C122.327 11.1927 122.069 11.0833 121.718 11.0071L120.415 10.7337C119.682 10.5812 119.141 10.3243 118.789 9.96307C118.438 9.59848 118.264 9.13778 118.267 8.58097C118.264 8.11032 118.392 7.70265 118.65 7.35795C118.912 7.00994 119.275 6.74148 119.739 6.55256C120.206 6.36032 120.745 6.2642 121.355 6.2642C122.249 6.2642 122.954 6.45478 123.468 6.83594C123.985 7.21709 124.304 7.73248 124.427 8.3821ZM129.456 14.1491C128.69 14.1491 128.029 13.9901 127.472 13.6719C126.919 13.3504 126.493 12.8963 126.194 12.3097C125.896 11.7197 125.747 11.0253 125.747 10.2266C125.747 9.44105 125.896 8.75166 126.194 8.15838C126.496 7.56179 126.917 7.09777 127.457 6.76633C127.997 6.43158 128.632 6.2642 129.361 6.2642C129.832 6.2642 130.276 6.34044 130.694 6.4929C131.115 6.64205 131.486 6.87405 131.807 7.18892C132.132 7.50379 132.387 7.90483 132.573 8.39205C132.759 8.87595 132.851 9.45265 132.851 10.1222V10.674H126.592V9.46094H131.126C131.123 9.11624 131.048 8.80966 130.903 8.54119C130.757 8.26941 130.553 8.05563 130.291 7.89986C130.032 7.74408 129.731 7.66619 129.386 7.66619C129.018 7.66619 128.695 7.75568 128.417 7.93466C128.138 8.11032 127.921 8.34233 127.765 8.63068C127.613 8.91572 127.535 9.22893 127.532 9.57031V10.6293C127.532 11.0734 127.613 11.4545 127.775 11.7727C127.938 12.0876 128.165 12.3295 128.456 12.4986C128.748 12.6643 129.09 12.7472 129.481 12.7472C129.742 12.7472 129.979 12.7107 130.192 12.6378C130.404 12.5616 130.588 12.4505 130.743 12.3047C130.899 12.1589 131.017 11.9782 131.096 11.7628L132.777 11.9517C132.671 12.3958 132.469 12.7836 132.17 13.1151C131.875 13.4432 131.497 13.6984 131.037 13.8807C130.576 14.0597 130.049 14.1491 129.456 14.1491ZM139.241 10.7884V6.36364H141.041V14H139.296V12.6428H139.216C139.044 13.0703 138.761 13.42 138.366 13.6918C137.975 13.9635 137.493 14.0994 136.919 14.0994C136.419 14.0994 135.976 13.9884 135.592 13.7663C135.211 13.541 134.913 13.2145 134.697 12.7869C134.482 12.3561 134.374 11.8357 134.374 11.2259V6.36364H136.174V10.9474C136.174 11.4313 136.306 11.8158 136.571 12.1009C136.837 12.3859 137.185 12.5284 137.615 12.5284C137.881 12.5284 138.137 12.4638 138.386 12.3345C138.635 12.2053 138.838 12.013 138.998 11.7578C139.16 11.4993 139.241 11.1761 139.241 10.7884ZM148.164 3.81818V14H146.364V3.81818H148.164ZM153.346 14.1491C152.6 14.1491 151.953 13.9851 151.407 13.657C150.86 13.3288 150.435 12.8698 150.134 12.2798C149.836 11.6899 149.686 11.0005 149.686 10.2116C149.686 9.42282 149.836 8.73177 150.134 8.13849C150.435 7.54522 150.86 7.08452 151.407 6.75639C151.953 6.42827 152.6 6.2642 153.346 6.2642C154.091 6.2642 154.738 6.42827 155.284 6.75639C155.831 7.08452 156.254 7.54522 156.552 8.13849C156.854 8.73177 157.005 9.42282 157.005 10.2116C157.005 11.0005 156.854 11.6899 156.552 12.2798C156.254 12.8698 155.831 13.3288 155.284 13.657C154.738 13.9851 154.091 14.1491 153.346 14.1491ZM153.355 12.7074C153.76 12.7074 154.098 12.5964 154.37 12.3743C154.641 12.1489 154.844 11.8473 154.976 11.4695C155.112 11.0916 155.18 10.6707 155.18 10.2067C155.18 9.73935 155.112 9.31676 154.976 8.93892C154.844 8.55777 154.641 8.2545 154.37 8.02912C154.098 7.80374 153.76 7.69105 153.355 7.69105C152.941 7.69105 152.596 7.80374 152.321 8.02912C152.05 8.2545 151.846 8.55777 151.71 8.93892C151.577 9.31676 151.511 9.73935 151.511 10.2067C151.511 10.6707 151.577 11.0916 151.71 11.4695C151.846 11.8473 152.05 12.1489 152.321 12.3743C152.596 12.5964 152.941 12.7074 153.355 12.7074ZM161.853 17.0227C161.207 17.0227 160.652 16.9349 160.188 16.7592C159.724 16.5869 159.351 16.3549 159.069 16.0632C158.787 15.7715 158.592 15.4484 158.482 15.0938L160.103 14.701C160.176 14.8501 160.282 14.9976 160.421 15.1435C160.561 15.2926 160.748 15.4152 160.983 15.5114C161.222 15.6108 161.522 15.6605 161.883 15.6605C162.393 15.6605 162.816 15.5362 163.151 15.2876C163.485 15.0424 163.653 14.638 163.653 14.0746V12.6278H163.563C163.471 12.8134 163.335 13.004 163.156 13.1996C162.98 13.3951 162.746 13.5592 162.455 13.6918C162.166 13.8243 161.803 13.8906 161.366 13.8906C160.779 13.8906 160.247 13.7531 159.77 13.478C159.296 13.1996 158.918 12.7853 158.637 12.2351C158.358 11.6816 158.219 10.9889 158.219 10.157C158.219 9.31842 158.358 8.6108 158.637 8.03409C158.918 7.45407 159.298 7.01491 159.775 6.71662C160.252 6.41501 160.784 6.2642 161.371 6.2642C161.818 6.2642 162.186 6.34044 162.475 6.4929C162.766 6.64205 162.998 6.82268 163.171 7.0348C163.343 7.24361 163.474 7.44081 163.563 7.62642H163.663V6.36364H165.438V14.1243C165.438 14.7772 165.282 15.3175 164.97 15.745C164.659 16.1726 164.233 16.4924 163.693 16.7045C163.152 16.9167 162.539 17.0227 161.853 17.0227ZM161.868 12.4787C162.249 12.4787 162.574 12.3859 162.843 12.2003C163.111 12.0147 163.315 11.7479 163.454 11.3999C163.593 11.0518 163.663 10.6342 163.663 10.147C163.663 9.66643 163.593 9.2455 163.454 8.88423C163.318 8.52296 163.116 8.2429 162.847 8.04403C162.582 7.84186 162.256 7.74077 161.868 7.74077C161.467 7.74077 161.132 7.84517 160.864 8.05398C160.595 8.26278 160.393 8.54948 160.257 8.91406C160.121 9.27533 160.053 9.68632 160.053 10.147C160.053 10.6143 160.121 11.0237 160.257 11.375C160.396 11.723 160.6 11.9948 160.869 12.1903C161.141 12.3826 161.474 12.4787 161.868 12.4787ZM167.282 14V6.36364H169.082V14H167.282ZM168.187 5.27983C167.902 5.27983 167.657 5.18537 167.451 4.99645C167.246 4.80421 167.143 4.57386 167.143 4.3054C167.143 4.03362 167.246 3.80327 167.451 3.61435C167.657 3.42211 167.902 3.32599 168.187 3.32599C168.475 3.32599 168.721 3.42211 168.923 3.61435C169.128 3.80327 169.231 4.03362 169.231 4.3054C169.231 4.57386 169.128 4.80421 168.923 4.99645C168.721 5.18537 168.475 5.27983 168.187 5.27983ZM172.732 9.52557V14H170.933V6.36364H172.653V7.66122H172.742C172.918 7.23366 173.198 6.89394 173.582 6.64205C173.97 6.39015 174.449 6.2642 175.019 6.2642C175.546 6.2642 176.005 6.37689 176.396 6.60227C176.791 6.82765 177.096 7.15412 177.311 7.58168C177.53 8.00923 177.638 8.52794 177.634 9.13778V14H175.835V9.41619C175.835 8.90578 175.702 8.50639 175.437 8.21804C175.175 7.92969 174.812 7.78551 174.348 7.78551C174.033 7.78551 173.753 7.85511 173.508 7.99432C173.266 8.13021 173.075 8.32741 172.936 8.58594C172.8 8.84446 172.732 9.15767 172.732 9.52557ZM59.2557 31.1491C58.5099 31.1491 57.8636 30.9851 57.3168 30.657C56.7699 30.3288 56.3456 29.8698 56.044 29.2798C55.7457 28.6899 55.5966 28.0005 55.5966 27.2116C55.5966 26.4228 55.7457 25.7318 56.044 25.1385C56.3456 24.5452 56.7699 24.0845 57.3168 23.7564C57.8636 23.4283 58.5099 23.2642 59.2557 23.2642C60.0014 23.2642 60.6477 23.4283 61.1946 23.7564C61.7415 24.0845 62.1641 24.5452 62.4624 25.1385C62.764 25.7318 62.9148 26.4228 62.9148 27.2116C62.9148 28.0005 62.764 28.6899 62.4624 29.2798C62.1641 29.8698 61.7415 30.3288 61.1946 30.657C60.6477 30.9851 60.0014 31.1491 59.2557 31.1491ZM59.2656 29.7074C59.67 29.7074 60.008 29.5964 60.2798 29.3743C60.5516 29.1489 60.7538 28.8473 60.8864 28.4695C61.0223 28.0916 61.0902 27.6707 61.0902 27.2067C61.0902 26.7393 61.0223 26.3168 60.8864 25.9389C60.7538 25.5578 60.5516 25.2545 60.2798 25.0291C60.008 24.8037 59.67 24.6911 59.2656 24.6911C58.8513 24.6911 58.5066 24.8037 58.2315 25.0291C57.9598 25.2545 57.7559 25.5578 57.62 25.9389C57.4875 26.3168 57.4212 26.7393 57.4212 27.2067C57.4212 27.6707 57.4875 28.0916 57.62 28.4695C57.7559 28.8473 57.9598 29.1489 58.2315 29.3743C58.5066 29.5964 58.8513 29.7074 59.2656 29.7074ZM69.3095 27.7884V23.3636H71.1092V31H69.3642V29.6428H69.2846C69.1123 30.0703 68.8289 30.42 68.4345 30.6918C68.0434 30.9635 67.5611 31.0994 66.9877 31.0994C66.4873 31.0994 66.0448 30.9884 65.6603 30.7663C65.2792 30.541 64.9809 30.2145 64.7654 29.7869C64.55 29.3561 64.4423 28.8357 64.4423 28.2259V23.3636H66.242V27.9474C66.242 28.4313 66.3746 28.8158 66.6397 29.1009C66.9049 29.3859 67.2529 29.5284 67.6838 29.5284C67.9489 29.5284 68.2058 29.4638 68.4544 29.3345C68.7029 29.2053 68.9068 29.013 69.0659 28.7578C69.2283 28.4993 69.3095 28.1761 69.3095 27.7884ZM79.7635 31.1491C79.0012 31.1491 78.3466 30.9818 77.7997 30.647C77.2562 30.3123 76.8369 29.8499 76.5419 29.2599C76.2502 28.6667 76.1044 27.9839 76.1044 27.2116C76.1044 26.4361 76.2536 25.7517 76.5518 25.1584C76.8501 24.5618 77.2711 24.0978 77.8146 23.7663C78.3615 23.4316 79.0078 23.2642 79.7536 23.2642C80.3733 23.2642 80.9219 23.3786 81.3991 23.6072C81.8797 23.8326 82.2625 24.1525 82.5476 24.5668C82.8326 24.9777 82.995 25.4583 83.0348 26.0085H81.3146C81.245 25.6406 81.0793 25.334 80.8175 25.0888C80.5589 24.8402 80.2126 24.7159 79.7784 24.7159C79.4105 24.7159 79.0874 24.8153 78.8089 25.0142C78.5305 25.2098 78.3134 25.4915 78.1577 25.8594C78.0052 26.2273 77.929 26.6681 77.929 27.1818C77.929 27.7022 78.0052 28.1496 78.1577 28.5241C78.3101 28.8954 78.5239 29.1821 78.799 29.3842C79.0774 29.5831 79.4039 29.6825 79.7784 29.6825C80.0436 29.6825 80.2805 29.6328 80.4893 29.5334C80.7015 29.4306 80.8788 29.2831 81.0213 29.0909C81.1638 28.8987 81.2616 28.665 81.3146 28.3899H83.0348C82.9917 28.9302 82.8326 29.4091 82.5575 29.8267C82.2824 30.241 81.9079 30.5658 81.4339 30.8011C80.96 31.0331 80.4032 31.1491 79.7635 31.1491ZM86.71 31.1541C86.2261 31.1541 85.7903 31.0679 85.4025 30.8956C85.0181 30.7199 84.7131 30.4614 84.4877 30.12C84.2657 29.7786 84.1547 29.3577 84.1547 28.8572C84.1547 28.4264 84.2342 28.0701 84.3933 27.7884C84.5524 27.5066 84.7695 27.2812 85.0446 27.1122C85.3197 26.9432 85.6296 26.8156 85.9743 26.7294C86.3223 26.6399 86.6819 26.5753 87.0531 26.5355C87.5005 26.4891 87.8635 26.4477 88.1419 26.4112C88.4203 26.3714 88.6225 26.3118 88.7484 26.2322C88.8777 26.1494 88.9423 26.0218 88.9423 25.8494V25.8196C88.9423 25.4451 88.8313 25.1551 88.6092 24.9496C88.3871 24.7441 88.0673 24.6413 87.6497 24.6413C87.2089 24.6413 86.8592 24.7375 86.6007 24.9297C86.3455 25.1219 86.1731 25.349 86.0836 25.6108L84.4032 25.3722C84.5358 24.9081 84.7546 24.5204 85.0595 24.2088C85.3644 23.8939 85.7373 23.6586 86.1781 23.5028C86.6189 23.3438 87.1061 23.2642 87.6397 23.2642C88.0076 23.2642 88.3739 23.3073 88.7385 23.3935C89.103 23.4796 89.4361 23.6222 89.7377 23.821C90.0394 24.0166 90.2813 24.2834 90.4636 24.6214C90.6492 24.9595 90.742 25.3821 90.742 25.8892V31H89.0119V29.951H88.9522C88.8429 30.1631 88.6887 30.362 88.4899 30.5476C88.2943 30.7299 88.0474 30.8774 87.7491 30.9901C87.4541 31.0994 87.1078 31.1541 86.71 31.1541ZM87.1774 29.8317C87.5386 29.8317 87.8519 29.7604 88.117 29.6179C88.3822 29.4721 88.586 29.2798 88.7285 29.0412C88.8743 28.8026 88.9473 28.5424 88.9473 28.2607V27.3608C88.8909 27.4072 88.7948 27.4503 88.6589 27.4901C88.5263 27.5298 88.3772 27.5646 88.2115 27.5945C88.0458 27.6243 87.8817 27.6508 87.7193 27.674C87.5569 27.6972 87.416 27.7171 87.2967 27.7337C87.0282 27.7701 86.7879 27.8298 86.5758 27.9126C86.3637 27.9955 86.1963 28.1115 86.0737 28.2607C85.9511 28.4065 85.8897 28.5954 85.8897 28.8274C85.8897 29.1589 86.0107 29.4091 86.2527 29.5781C86.4946 29.7472 86.8029 29.8317 87.1774 29.8317ZM95.3855 31.1342C94.7856 31.1342 94.2486 30.9801 93.7747 30.6719C93.3007 30.3636 92.9262 29.9162 92.6511 29.3295C92.376 28.7429 92.2385 28.0303 92.2385 27.1918C92.2385 26.3433 92.3777 25.6274 92.6561 25.044C92.9378 24.4574 93.3173 24.0149 93.7946 23.7166C94.2718 23.415 94.8038 23.2642 95.3904 23.2642C95.8379 23.2642 96.2058 23.3404 96.4941 23.4929C96.7825 23.642 97.0112 23.8227 97.1802 24.0348C97.3493 24.2436 97.4802 24.4408 97.573 24.6264H97.6475V20.8182H99.4522V31H97.6824V29.7969H97.573C97.4802 29.9825 97.3459 30.1797 97.1703 30.3885C96.9946 30.594 96.7626 30.7696 96.4743 30.9155C96.1859 31.0613 95.823 31.1342 95.3855 31.1342ZM95.8876 29.6577C96.2688 29.6577 96.5936 29.5549 96.862 29.3494C97.1305 29.1406 97.3343 28.8506 97.4735 28.4794C97.6127 28.1082 97.6824 27.6757 97.6824 27.1818C97.6824 26.688 97.6127 26.2588 97.4735 25.8942C97.3377 25.5296 97.1355 25.2462 96.867 25.044C96.6019 24.8419 96.2754 24.7408 95.8876 24.7408C95.4866 24.7408 95.1518 24.8452 94.8833 25.054C94.6149 25.2628 94.4127 25.5511 94.2768 25.919C94.1409 26.2869 94.073 26.7079 94.073 27.1818C94.073 27.6591 94.1409 28.085 94.2768 28.4595C94.416 28.8307 94.6199 29.1241 94.8883 29.3395C95.1601 29.5516 95.4932 29.6577 95.8876 29.6577ZM103.567 31.1541C103.084 31.1541 102.648 31.0679 102.26 30.8956C101.875 30.7199 101.571 30.4614 101.345 30.12C101.123 29.7786 101.012 29.3577 101.012 28.8572C101.012 28.4264 101.092 28.0701 101.251 27.7884C101.41 27.5066 101.627 27.2812 101.902 27.1122C102.177 26.9432 102.487 26.8156 102.832 26.7294C103.18 26.6399 103.539 26.5753 103.911 26.5355C104.358 26.4891 104.721 26.4477 104.999 26.4112C105.278 26.3714 105.48 26.3118 105.606 26.2322C105.735 26.1494 105.8 26.0218 105.8 25.8494V25.8196C105.8 25.4451 105.689 25.1551 105.467 24.9496C105.245 24.7441 104.925 24.6413 104.507 24.6413C104.066 24.6413 103.717 24.7375 103.458 24.9297C103.203 25.1219 103.031 25.349 102.941 25.6108L101.261 25.3722C101.393 24.9081 101.612 24.5204 101.917 24.2088C102.222 23.8939 102.595 23.6586 103.036 23.5028C103.476 23.3438 103.964 23.2642 104.497 23.2642C104.865 23.2642 105.231 23.3073 105.596 23.3935C105.96 23.4796 106.294 23.6222 106.595 23.821C106.897 24.0166 107.139 24.2834 107.321 24.6214C107.507 24.9595 107.599 25.3821 107.599 25.8892V31H105.869V29.951H105.81C105.7 30.1631 105.546 30.362 105.347 30.5476C105.152 30.7299 104.905 30.8774 104.607 30.9901C104.312 31.0994 103.965 31.1541 103.567 31.1541ZM104.035 29.8317C104.396 29.8317 104.709 29.7604 104.974 29.6179C105.24 29.4721 105.443 29.2798 105.586 29.0412C105.732 28.8026 105.805 28.5424 105.805 28.2607V27.3608C105.748 27.4072 105.652 27.4503 105.516 27.4901C105.384 27.5298 105.235 27.5646 105.069 27.5945C104.903 27.6243 104.739 27.6508 104.577 27.674C104.414 27.6972 104.273 27.7171 104.154 27.7337C103.886 27.7701 103.645 27.8298 103.433 27.9126C103.221 27.9955 103.054 28.1115 102.931 28.2607C102.808 28.4065 102.747 28.5954 102.747 28.8274C102.747 29.1589 102.868 29.4091 103.11 29.5781C103.352 29.7472 103.66 29.8317 104.035 29.8317ZM115.445 25.3821L113.804 25.5611C113.758 25.3954 113.676 25.2396 113.56 25.0938C113.448 24.9479 113.295 24.8303 113.103 24.7408C112.911 24.6513 112.675 24.6065 112.397 24.6065C112.022 24.6065 111.708 24.6877 111.452 24.8501C111.201 25.0125 111.076 25.223 111.08 25.4815C111.076 25.7036 111.157 25.8842 111.323 26.0234C111.492 26.1626 111.771 26.277 112.158 26.3665L113.461 26.6449C114.183 26.8007 114.72 27.0476 115.072 27.3857C115.426 27.7237 115.605 28.1662 115.609 28.7131C115.605 29.1937 115.464 29.6179 115.186 29.9858C114.911 30.3504 114.528 30.6354 114.038 30.8409C113.547 31.0464 112.984 31.1491 112.347 31.1491C111.413 31.1491 110.66 30.9536 110.09 30.5625C109.52 30.1681 109.18 29.6196 109.071 28.9169L110.826 28.7479C110.906 29.0926 111.075 29.3527 111.333 29.5284C111.592 29.7041 111.928 29.7919 112.342 29.7919C112.77 29.7919 113.113 29.7041 113.371 29.5284C113.633 29.3527 113.764 29.1357 113.764 28.8771C113.764 28.6584 113.68 28.4777 113.511 28.3352C113.345 28.1927 113.086 28.0833 112.735 28.0071L111.433 27.7337C110.7 27.5812 110.158 27.3243 109.807 26.9631C109.455 26.5985 109.281 26.1378 109.285 25.581C109.281 25.1103 109.409 24.7027 109.668 24.358C109.929 24.0099 110.292 23.7415 110.756 23.5526C111.224 23.3603 111.762 23.2642 112.372 23.2642C113.267 23.2642 113.971 23.4548 114.485 23.8359C115.002 24.2171 115.322 24.7325 115.445 25.3821ZM120.906 23.3636V24.7557H116.516V23.3636H120.906ZM117.6 21.5341H119.4V28.7031C119.4 28.9451 119.436 29.1307 119.509 29.2599C119.585 29.3859 119.685 29.4721 119.807 29.5185C119.93 29.5649 120.066 29.5881 120.215 29.5881C120.328 29.5881 120.43 29.5798 120.523 29.5632C120.619 29.5466 120.692 29.5317 120.742 29.5185L121.045 30.9254C120.949 30.9586 120.811 30.995 120.632 31.0348C120.457 31.0746 120.241 31.0978 119.986 31.1044C119.535 31.1177 119.129 31.0497 118.768 30.9006C118.407 30.7481 118.12 30.5128 117.908 30.1946C117.699 29.8764 117.596 29.4787 117.6 29.0014V21.5341ZM122.411 31V23.3636H124.156V24.6364H124.236C124.375 24.1955 124.613 23.8558 124.952 23.6172C125.293 23.3752 125.682 23.2543 126.12 23.2543C126.219 23.2543 126.33 23.2592 126.453 23.2692C126.579 23.2758 126.683 23.2874 126.766 23.304V24.9595C126.69 24.933 126.569 24.9098 126.403 24.8899C126.241 24.8667 126.083 24.8551 125.931 24.8551C125.603 24.8551 125.308 24.9264 125.046 25.0689C124.787 25.2081 124.584 25.402 124.434 25.6506C124.285 25.8991 124.211 26.1858 124.211 26.5107V31H122.411ZM131.028 31.1491C130.262 31.1491 129.601 30.9901 129.044 30.6719C128.491 30.3504 128.065 29.8963 127.767 29.3097C127.468 28.7197 127.319 28.0253 127.319 27.2266C127.319 26.4411 127.468 25.7517 127.767 25.1584C128.068 24.5618 128.489 24.0978 129.029 23.7663C129.57 23.4316 130.204 23.2642 130.934 23.2642C131.404 23.2642 131.848 23.3404 132.266 23.4929C132.687 23.642 133.058 23.8741 133.38 24.1889C133.704 24.5038 133.96 24.9048 134.145 25.392C134.331 25.8759 134.424 26.4527 134.424 27.1222V27.674H128.164V26.4609H132.699C132.695 26.1162 132.621 25.8097 132.475 25.5412C132.329 25.2694 132.125 25.0556 131.863 24.8999C131.605 24.7441 131.303 24.6662 130.958 24.6662C130.591 24.6662 130.267 24.7557 129.989 24.9347C129.711 25.1103 129.493 25.3423 129.338 25.6307C129.185 25.9157 129.107 26.2289 129.104 26.5703V27.6293C129.104 28.0734 129.185 28.4545 129.348 28.7727C129.51 29.0876 129.737 29.3295 130.029 29.4986C130.32 29.6643 130.662 29.7472 131.053 29.7472C131.315 29.7472 131.552 29.7107 131.764 29.6378C131.976 29.5616 132.16 29.4505 132.316 29.3047C132.471 29.1589 132.589 28.9782 132.669 28.7628L134.349 28.9517C134.243 29.3958 134.041 29.7836 133.743 30.1151C133.448 30.4432 133.07 30.6984 132.609 30.8807C132.148 31.0597 131.621 31.1491 131.028 31.1491ZM140.575 26.0185V27.5H135.991V26.0185H140.575ZM148.503 25.3821L146.863 25.5611C146.816 25.3954 146.735 25.2396 146.619 25.0938C146.506 24.9479 146.354 24.8303 146.162 24.7408C145.969 24.6513 145.734 24.6065 145.456 24.6065C145.081 24.6065 144.766 24.6877 144.511 24.8501C144.259 25.0125 144.135 25.223 144.138 25.4815C144.135 25.7036 144.216 25.8842 144.382 26.0234C144.551 26.1626 144.829 26.277 145.217 26.3665L146.52 26.6449C147.242 26.8007 147.779 27.0476 148.13 27.3857C148.485 27.7237 148.664 28.1662 148.667 28.7131C148.664 29.1937 148.523 29.6179 148.245 29.9858C147.97 30.3504 147.587 30.6354 147.096 30.8409C146.606 31.0464 146.042 31.1491 145.406 31.1491C144.471 31.1491 143.719 30.9536 143.149 30.5625C142.579 30.1681 142.239 29.6196 142.13 28.9169L143.885 28.7479C143.964 29.0926 144.133 29.3527 144.392 29.5284C144.65 29.7041 144.987 29.7919 145.401 29.7919C145.828 29.7919 146.172 29.7041 146.43 29.5284C146.692 29.3527 146.823 29.1357 146.823 28.8771C146.823 28.6584 146.738 28.4777 146.569 28.3352C146.404 28.1927 146.145 28.0833 145.794 28.0071L144.491 27.7337C143.759 27.5812 143.217 27.3243 142.865 26.9631C142.514 26.5985 142.34 26.1378 142.343 25.581C142.34 25.1103 142.468 24.7027 142.726 24.358C142.988 24.0099 143.351 23.7415 143.815 23.5526C144.282 23.3603 144.821 23.2642 145.431 23.2642C146.326 23.2642 147.03 23.4548 147.544 23.8359C148.061 24.2171 148.381 24.7325 148.503 25.3821ZM153.532 31.1491C152.766 31.1491 152.105 30.9901 151.548 30.6719C150.995 30.3504 150.569 29.8963 150.271 29.3097C149.972 28.7197 149.823 28.0253 149.823 27.2266C149.823 26.4411 149.972 25.7517 150.271 25.1584C150.572 24.5618 150.993 24.0978 151.533 23.7663C152.074 23.4316 152.708 23.2642 153.438 23.2642C153.908 23.2642 154.352 23.3404 154.77 23.4929C155.191 23.642 155.562 23.8741 155.884 24.1889C156.208 24.5038 156.464 24.9048 156.649 25.392C156.835 25.8759 156.928 26.4527 156.928 27.1222V27.674H150.668V26.4609H155.202C155.199 26.1162 155.125 25.8097 154.979 25.5412C154.833 25.2694 154.629 25.0556 154.367 24.8999C154.109 24.7441 153.807 24.6662 153.462 24.6662C153.094 24.6662 152.771 24.7557 152.493 24.9347C152.214 25.1103 151.997 25.3423 151.842 25.6307C151.689 25.9157 151.611 26.2289 151.608 26.5703V27.6293C151.608 28.0734 151.689 28.4545 151.852 28.7727C152.014 29.0876 152.241 29.3295 152.533 29.4986C152.824 29.6643 153.166 29.7472 153.557 29.7472C153.819 29.7472 154.056 29.7107 154.268 29.6378C154.48 29.5616 154.664 29.4505 154.82 29.3047C154.975 29.1589 155.093 28.9782 155.173 28.7628L156.853 28.9517C156.747 29.3958 156.545 29.7836 156.246 30.1151C155.951 30.4432 155.574 30.6984 155.113 30.8807C154.652 31.0597 154.125 31.1491 153.532 31.1491Z" fill="#315818"/>
</svg>
