<svg width="155" height="229" viewBox="0 0 155 229" fill="none" xmlns="http://www.w3.org/2000/svg">
<path d="M16.6228 5L12.937 51.7005L8.02249 104.238L2.49368 155.025C0.85552 164.754 2.37082 184.797 21.5373 187.132C45.4955 190.051 58.396 191.802 98.3263 190.634C138.257 189.467 133.342 190.051 143.171 183.045C151.034 177.441 153 166.7 153 162.03L139.485 5" stroke="#315818" stroke-width="3"/>
<path d="M33.6635 57.5888L33.6567 57.6849C33.6567 57.6532 33.6589 57.6211 33.6635 57.5888Z" fill="#315818"/>
<path d="M15 5H37.3881L33.6567 57.6849C33.6567 56.6519 36.0199 55.2056 45.4726 57.6849C57.2886 60.784 54.1791 61.4038 67.2388 60.784C80.2985 60.1642 83.408 55.8254 88.3831 55.8254C92.3632 55.8254 110.771 59.1311 119.478 60.784V5H140" stroke="#315818" stroke-width="3"/>
<path d="M16 17H36" stroke="#315818" stroke-width="3"/>
<path d="M121 18H141" stroke="#315818" stroke-width="3"/>
<path d="M68.3873 95.047C67.1682 95.3351 66.0016 95.9737 65.0971 96.8629C64.3761 97.5642 63.6814 98.5911 60.5222 103.688C56.5897 110.063 56.5111 110.213 57.1141 110.751C57.6253 111.215 68.7281 117.414 69.0427 117.414C69.2 117.414 69.4622 117.326 69.6195 117.226C69.7637 117.126 71.5333 114.396 73.5389 111.165C75.5445 107.921 77.2092 105.291 77.2354 105.316C77.4845 105.567 81.6923 111.716 81.653 111.778C81.6136 111.828 81.0631 112.179 80.4208 112.542C79.1755 113.256 78.8609 113.632 79.0182 114.22C79.1755 114.821 79.4114 114.859 86.4113 115.222C92.9655 115.573 93.0179 115.573 93.3587 115.322C93.6471 115.122 94.0142 114.17 95.7707 109.136C96.9111 105.88 97.8418 103.049 97.8418 102.874C97.8418 102.686 97.7369 102.411 97.6059 102.248C97.1864 101.76 96.7014 101.872 95.325 102.786L94.0666 103.613L91.9299 100.595C89.5573 97.2511 88.6266 96.2367 87.3813 95.6356C85.7821 94.8592 85.8607 94.8717 77.065 94.8842C71.0876 94.8842 68.8985 94.9343 68.3873 95.047ZM73.3947 100.031C74.6924 101.847 75.7411 103.413 75.7411 103.513C75.7411 103.651 69.0034 114.734 68.6757 115.135C68.6494 115.16 59.5522 110 59.3294 109.837C59.3032 109.812 62.8686 103.914 65.2019 100.132C65.687 99.3425 66.3424 98.4534 66.657 98.1528C67.6139 97.2511 68.8461 96.8003 70.4453 96.7627L71.0483 96.7502L73.3947 100.031ZM84.8514 96.8754C85.8739 97.0132 86.8963 97.4766 87.5779 98.1027C87.8532 98.3657 89.2296 100.182 90.6191 102.148C92.0217 104.101 93.2277 105.742 93.3063 105.792C93.5816 105.98 94.1977 105.892 94.604 105.617C94.8662 105.429 94.9842 105.404 94.9317 105.529C94.8924 105.617 94.2632 107.445 93.516 109.587C92.782 111.716 92.1397 113.507 92.1003 113.544C92.0217 113.607 85.0218 113.269 83.5537 113.131L83.0949 113.093L83.5143 112.855C84.0387 112.555 84.2615 112.066 84.1042 111.641C84.0256 111.478 81.6923 108.134 78.9002 104.214C76.1212 100.307 73.801 97.0257 73.7617 96.9255C73.7093 96.7752 74.5089 96.7502 78.8478 96.7502C81.6923 96.7502 84.3926 96.8128 84.8514 96.8754Z" fill="#315818" stroke="#315818" stroke-width="1.4"/>
<path d="M96.0722 117.99C92.7558 119.468 89.9506 120.758 89.8457 120.858C89.7539 120.958 89.6622 121.221 89.6753 121.446C89.6753 121.709 90.7633 124.089 92.6509 127.946C94.2763 131.302 95.6134 134.083 95.6134 134.12C95.6134 134.158 93.8175 134.195 91.6284 134.195H87.6435L87.5911 132.68C87.5517 131.202 87.5386 131.165 87.1847 130.864C86.7914 130.538 86.4375 130.488 86.0443 130.689C85.8345 130.801 78.2186 140.119 77.8253 140.757C77.7336 140.908 77.668 141.121 77.6549 141.233C77.6549 141.509 85.5724 151.615 85.9525 151.816C86.4113 152.054 86.6866 152.003 87.106 151.615C87.4862 151.252 87.4862 151.227 87.4862 149.799V148.347H91.7202C96.3606 148.347 96.6096 148.322 98.1695 147.558C99.7425 146.806 100.66 145.667 108.145 135.285C109.207 133.82 109.587 132.943 109.81 131.553C110.072 129.812 109.941 129.449 106.375 122.123C104.632 118.553 103.111 115.548 102.98 115.46C102.862 115.373 102.613 115.297 102.43 115.297C102.246 115.297 99.3886 116.512 96.0722 117.99ZM104.684 123.312C106.179 126.368 107.503 129.148 107.608 129.486C108.04 130.851 107.791 132.342 106.887 133.669L106.362 134.446L102.141 134.421L97.9205 134.383L94.9973 128.197C93.385 124.803 92.0872 121.997 92.1135 121.972C92.2708 121.822 101.722 117.677 101.84 117.714C101.905 117.727 103.19 120.257 104.684 123.312ZM86.0312 135.836C86.3195 136.061 86.7128 136.074 93.0441 136.086C96.7276 136.099 100.935 136.149 102.404 136.186L105.078 136.262L102.154 140.332C100.555 142.573 98.9822 144.677 98.6414 145.003C97.9205 145.729 96.7538 146.305 95.6789 146.468C95.2464 146.531 92.9131 146.593 90.488 146.593C86.2278 146.593 86.0836 146.606 85.8476 146.844C85.7166 146.994 85.5724 147.332 85.533 147.608L85.4544 148.121L82.7803 144.74C81.299 142.886 80.0931 141.346 80.0931 141.309C80.08 141.271 81.3253 139.718 82.8327 137.852L85.5855 134.446L85.6641 135.034C85.7035 135.423 85.8345 135.685 86.0312 135.836Z" fill="#315818" stroke="#315818" stroke-width="1.4"/>
<path d="M52.749 117.151C49.249 117.902 46.2996 118.541 46.1686 118.591C45.8015 118.741 45.618 119.355 45.8015 119.793C45.9195 120.081 46.2472 120.294 47.2959 120.808C48.0168 121.158 48.6329 121.472 48.6592 121.484C48.6854 121.497 47.9775 122.974 47.0993 124.753C46.221 126.543 45.3952 128.309 45.251 128.685C44.8839 129.712 44.8053 131.089 45.0675 132.204C45.3296 133.319 45.5394 133.707 49.9962 140.945C53.6928 146.957 54.0729 147.42 55.7508 148.272C57.35 149.073 57.586 149.098 65.818 149.098H73.1849L73.552 148.798L73.919 148.497V141.847V135.21L73.6175 134.922L73.316 134.634L66.1326 134.571C62.1739 134.533 58.8968 134.471 58.8444 134.433C58.7788 134.358 62.0559 127.646 62.2394 127.47C62.2657 127.445 62.8817 127.708 63.6158 128.046C64.3368 128.397 65.0446 128.685 65.1757 128.685C65.5034 128.685 65.9622 128.247 66.0671 127.846C66.172 127.47 66.3817 127.871 62.7376 121.183C60.1028 116.324 59.7488 115.786 59.2376 115.798C59.1721 115.798 56.2489 116.412 52.749 117.151ZM58.9492 118.579C59.1459 118.929 60.0766 120.657 61.0204 122.386C62.554 125.241 62.6982 125.542 62.3836 125.429C61.8724 125.241 61.5185 125.279 61.217 125.542C61.0597 125.679 59.1459 129.374 56.9437 133.744C54.7414 138.128 52.9194 141.709 52.8801 141.709C52.7359 141.709 47.3221 132.73 47.1517 132.204C46.8764 131.365 46.9157 129.862 47.2172 129.111C47.3614 128.773 48.279 126.857 49.2621 124.84C50.2453 122.837 51.0449 121.083 51.0449 120.946C51.0449 120.62 50.5599 120.056 50.1404 119.894C49.9045 119.793 49.8651 119.743 49.9962 119.706C50.6254 119.543 58.2283 117.94 58.3856 117.927C58.4904 117.927 58.7395 118.203 58.9492 118.579ZM71.8872 141.835V147.094H65.569C62.0821 147.094 58.8706 147.044 58.4249 146.982C57.4287 146.844 56.38 146.406 55.7115 145.842C55.174 145.379 54.1909 144.076 54.1909 143.813C54.1909 143.713 54.8725 142.298 55.7115 140.645C56.5504 138.992 57.3369 137.401 57.4811 137.101L57.717 136.575H64.8087H71.8872V141.835Z" fill="#315818" stroke="#315818" stroke-width="1.4"/>
<path d="M45.4724 0.377422C45.209 0.616531 45.0245 0.931152 44.9587 1.23318C44.8269 1.90017 44.9982 6.68237 45.2485 9.22449C45.8017 15.0764 47.1585 19.846 49.1607 22.9922C49.8589 24.0996 51.1893 25.6601 51.9665 26.2894C54.3639 28.2526 57.657 29.272 61.5693 29.272C64.4014 29.2594 67.2071 28.6931 69.1699 27.724C70.0656 27.2836 69.868 27.0822 70.8955 29.4859C73.7144 36.0929 75.1765 43.9206 75.4532 53.7744C75.5585 57.6505 75.6112 57.9274 76.2699 58.2546C76.9021 58.5692 77.6266 58.4811 78.0877 58.0532C78.5619 57.6002 78.5882 57.4114 78.6936 54.3533C78.9176 47.2304 80.5905 40.3088 83.3699 35.0358C83.9231 33.9786 85.135 31.9273 85.2799 31.7637C85.3062 31.7386 85.6092 31.9525 85.9385 32.2294C86.7157 32.8838 88.5467 33.7899 90.0484 34.2555C91.8267 34.8092 93.5654 35.0483 95.7521 35.0483C102.536 35.0232 106.817 32.242 109.438 26.1509C111.217 22.0232 112.086 17.1277 112.297 10.0551C112.429 5.53716 112.679 5.76369 107.634 5.86436C97.1616 6.09089 90.2986 7.85275 85.899 11.4772C83.1986 13.6921 81.6574 17.4171 81.6574 21.6834C81.6574 23.936 82.2107 26.6418 83.0406 28.4162L83.3699 29.1335L82.5268 30.4172C81.3808 32.1664 80.4719 33.815 79.7079 35.5392C78.9702 37.1878 77.956 39.9061 77.7057 40.9128C77.6135 41.2778 77.5213 41.5547 77.4817 41.5295C77.4554 41.4917 77.2578 40.5982 77.0602 39.5411C76.1118 34.7211 74.8341 30.6563 73.1084 26.9564L72.4235 25.484L73.0294 24.666C75.0843 21.847 76.0328 17.3291 75.4005 13.3271C74.7682 9.36292 73.0162 6.60686 69.7758 4.54297C65.2839 1.67365 58.9348 0.26416 49.5822 0.0753899L45.8939 -0.000118256L45.4724 0.377422ZM54.8118 3.24674C63.4661 4.07733 69.1435 6.43068 71.1457 10.0425C72.542 12.572 72.8845 16.3474 72.0283 19.6698C71.7648 20.664 70.9613 22.5643 70.8033 22.5643C70.7637 22.5643 70.3817 22.0609 69.947 21.4568C67.576 18.0716 65.139 15.7685 60.9502 12.9244C59.4748 11.9176 59.1324 11.7414 58.6977 11.7414C58.039 11.7414 57.4858 12.119 57.2882 12.6853C56.9589 13.6291 57.3145 14.0696 59.7251 15.7056C62.9524 17.8954 64.9942 19.8334 67.0491 22.6272C67.4574 23.181 67.9448 23.8983 68.1424 24.2255L68.4981 24.817L67.9975 25.0561C64.6648 26.6669 59.1324 26.7424 55.8524 25.2197C53.534 24.15 51.7557 22.0483 50.4253 18.8141C49.2002 15.8063 48.344 11.301 48.1333 6.70754C48.0937 5.77627 48.0279 4.53038 47.9884 3.95148L47.9225 2.89437L50.3594 2.96988C51.703 3.02021 53.7053 3.14606 54.8118 3.24674ZM109.267 9.6272C109.228 10.1306 109.162 11.3639 109.122 12.3707C108.925 16.9767 108.042 21.6708 106.817 24.6534C105.869 26.9312 104.314 29.1335 102.971 30.09C99.8356 32.33 94.4875 32.7705 90.0615 31.1723C89.1526 30.8451 87.3612 29.725 87.2294 29.4104C87.1504 29.209 87.6905 28.542 89.2053 27.0193C91.392 24.8044 94.5402 22.5895 97.7675 20.9912C99.5458 20.0977 99.8883 19.7957 99.8883 19.0909C99.8883 18.2729 99.2428 17.6563 98.3603 17.6563C97.8597 17.6563 96.3449 18.3232 94.6061 19.2923C91.6949 20.9409 89.6005 22.4888 87.2294 24.7792L85.4775 26.453L85.3458 25.937C84.3447 22.3881 84.6344 18.5246 86.1098 15.8315C87.348 13.5914 90.404 11.603 94.4875 10.4326C97.7938 9.4636 103.102 8.78402 107.713 8.73368L109.333 8.7211L109.267 9.6272Z" fill="#315818"/>
<path d="M16.826 227.725C18.2097 227.725 19.5906 227.265 20.8663 226.272H20.8995C22.8477 224.678 23.5202 221.916 23.7333 220.818C23.8052 220.463 23.8412 220.073 23.8744 219.509V219.401C23.8744 218.905 23.8052 218.482 23.5921 218.092C23.3099 217.63 22.8837 217.347 22.3164 217.347H22.2472C20.9715 217.524 20.7224 218.836 20.5813 220.109C20.299 221.703 19.9448 223.12 18.669 223.97C18.3148 224.113 18.0326 224.183 17.7475 224.183C17.3933 224.183 17.0751 224.078 16.7928 223.864C15.589 222.766 14.9857 220.571 14.7367 219.368C14.4904 218.305 14.3133 216.888 14.1721 215.186C14.0642 214.337 13.995 213.382 13.995 212.247C13.995 211.467 14.0282 210.725 14.0642 209.945C14.2053 207.997 14.5596 206.439 15.0577 205.199C15.6222 203.887 16.4026 202.968 17.3573 202.542L17.6424 202.437L17.8887 202.365H17.9246C18.0658 202.296 18.2788 202.26 18.42 202.26C18.741 202.26 18.9873 202.365 19.2723 202.578L19.6265 202.968C19.8728 203.356 20.0859 203.923 20.263 204.596C20.5813 205.943 21.0766 207.396 22.3524 207.606H22.3883C22.7066 207.606 23.3099 207.501 23.5202 206.898C23.6641 206.544 23.7333 206.156 23.7333 205.766V205.658C23.7333 205.199 23.6973 204.881 23.6281 204.562C23.2019 202.473 22.4575 200.984 21.4308 200.135C20.5453 199.426 19.2723 199 17.6424 199C17.3241 199 17.0031 199 16.6157 199.036C15.0577 199.249 13.746 199.886 12.6833 200.807C11.7258 201.693 10.9482 202.824 10.4169 204.277C9.88554 205.694 9.49535 207.147 9.31824 208.528C9.14113 209.804 9.03598 211.398 9 213.205V213.664C9 215.327 9.10516 217.029 9.39019 218.941C9.70844 220.995 10.2757 222.766 11.0534 224.147C11.9389 225.705 13.0735 226.803 14.4904 227.335C15.1988 227.584 16.0124 227.725 16.826 227.725Z" fill="#315818"/>
<path d="M34.0389 227.725C35.2095 227.725 36.2362 227.476 37.0857 226.98C38.2203 226.344 39.211 225.351 39.9887 224.078C40.6639 222.979 41.2284 221.634 41.6186 220.109V220.073C42.114 217.702 42.399 215.363 42.399 213.133C42.399 211.503 42.2579 209.804 41.9728 207.961C41.7597 206.652 41.4415 205.412 41.0181 204.313C40.4868 203.002 39.8115 201.906 38.998 201.056C38.0764 200.135 36.8726 199.603 35.3506 199.426C35.0324 199.39 34.7114 199.354 34.3931 199.354C33.2945 199.354 32.3038 199.531 31.4182 199.958C30.2864 200.417 29.3289 201.233 28.4793 202.473H28.4434C27.4167 204.064 26.7442 205.907 26.39 208.138C26.105 209.627 25.9998 211.221 25.9998 212.884C25.9998 213.451 26.0358 214.018 26.0718 214.655V214.763C26.1769 216.993 26.4952 218.977 26.9905 220.712C27.663 223.192 28.5485 224.963 29.7191 226.131C30.4635 226.875 31.4182 227.371 32.5888 227.548C33.0482 227.653 33.5436 227.725 34.0389 227.725ZM31.172 212.707C31.172 212.247 31.172 211.752 31.2052 211.257C31.3131 209.095 31.5954 207.324 32.0215 205.871C32.5169 204.49 33.4024 203.323 34.3571 202.755C34.6422 202.578 34.9604 202.506 35.2787 202.506C35.4917 202.506 35.774 202.542 36.0591 202.65C36.9806 203.074 37.689 204.031 38.1844 205.553C38.6437 206.934 38.926 208.741 38.998 210.936C39.0339 211.503 39.0339 212.034 39.0339 212.601C39.0339 213.877 38.998 215.222 38.8568 216.639C38.7157 218.092 38.5026 219.719 38.2203 220.782L38.0072 221.349C37.653 222.27 37.1577 223.015 36.5184 223.615C36.0231 224.114 35.5277 224.36 34.9964 224.36C34.9604 224.36 34.9244 224.36 34.8885 224.324H34.7833C34.18 224.255 33.5795 223.687 33.0122 222.625C32.3038 221.28 31.8084 219.578 31.4902 217.489C31.2771 215.895 31.172 214.301 31.172 212.707Z" fill="#315818"/>
<path d="M47.5692 227.725H47.6024C49.2324 227.725 50.1899 226.875 50.403 225.281C50.4362 224.891 50.4722 224.501 50.4722 224.042C50.4722 223.828 50.4722 223.582 50.4362 223.333C50.331 220.571 50.2591 215.045 50.2591 211.575V210.227C51.2525 212.851 52.5255 216.18 52.7386 216.639C53.3059 217.879 53.8732 219.332 54.4405 220.959V220.995L54.5457 221.208C54.5457 221.244 54.5457 221.244 54.5816 221.28L56.1756 226.059C56.599 227.371 57.0252 227.974 58.7243 227.725H59.3968C60.2823 227.725 60.4954 226.095 60.6033 225.705C60.8137 224.786 60.7445 223.759 60.7804 222.661C60.8496 220.959 60.8856 219.083 60.8856 217.029V215.117C60.8856 212.92 60.7445 210.404 60.6033 207.997C60.6033 207.396 60.5674 206.757 60.5314 206.156C60.4954 205.589 60.4594 203.887 60.4594 203.287V202.365C60.4594 202.047 60.4594 201.729 60.4262 201.374C60.3903 200.807 60.2823 200.348 60.072 200.027C59.787 199.567 59.3968 199.354 58.8655 199.354C57.1663 199.354 56.7429 200.24 56.7069 201.02C56.671 201.197 56.671 201.374 56.671 201.587C56.671 201.729 56.7069 201.906 56.7069 202.119V202.188C56.7069 204.418 57.2742 207.714 57.2742 209.873V209.909C57.2742 211.644 57.2383 213.274 57.2383 216.888V217.029C57.2383 217.419 57.2742 218.269 57.2383 218.659C55.2181 213.487 52.7026 206.403 52.2792 205.412L52.0302 204.845C51.925 204.562 51.8198 204.208 51.7119 203.854L51.6068 203.641C50.8983 201.729 50.082 199.567 47.8155 199.495C46.4706 199.495 45.5851 200.312 45.336 201.834C45.2668 202.329 45.2308 202.824 45.2308 203.251V206.19L45.2668 210.44C45.2668 212.106 45.336 216.498 45.336 218.374C45.336 219.791 45.336 221.244 45.3028 222.625C45.2668 222.838 45.2668 223.084 45.2668 223.297C45.2308 223.582 45.2308 223.9 45.2308 224.219C45.2308 224.501 45.2308 224.822 45.2668 225.173C45.4079 226.734 46.1883 227.725 47.5692 227.725Z" fill="#315818"/>
<path d="M68.1818 227.725H68.7464C69.845 227.725 70.8357 227.584 71.688 227.335C74.2727 226.626 76.149 222.589 75.8307 220.605C75.6536 217.843 74.0596 215.648 72.5376 213.769C71.7932 212.884 71.1567 211.893 70.5175 210.83H70.4842C69.9529 210.017 69.4908 209.131 68.9954 207.961C68.6412 207.111 68.5693 206.226 68.5693 205.271C68.5693 204.349 68.6772 204.454 69.1725 203.746C70.1992 202.542 71.2259 203.287 72.2194 204.031C72.7147 204.418 73.1741 204.668 73.6003 204.809C73.7774 204.881 73.8825 204.881 73.9905 204.881C74.3779 204.881 74.7681 204.632 75.0531 204.241C75.1942 204.031 75.2634 203.782 75.2994 203.464C75.2994 203.215 75.2302 202.932 75.0863 202.683C74.6989 201.693 73.8465 200.912 73.246 200.525C72.0755 199.78 70.8357 199.354 69.5987 199.354C69.2445 199.354 68.8183 199.426 68.4641 199.495C66.9061 199.85 65.5944 200.666 64.6397 202.011C64.0004 202.86 63.6462 203.959 63.577 205.235C63.3639 208.282 65.5584 212.034 68.4281 216.18L69.4908 217.702H69.5268C70.1632 218.551 70.5894 219.473 70.8025 220.358C70.8357 220.748 70.8717 221.031 70.8357 221.313C70.8357 222.874 69.3856 224.537 68.215 224.537H68.1099C67.6145 224.537 67.0113 224.183 66.3388 223.582L65.5944 222.979C65.3121 222.802 65.0298 222.73 64.7088 222.73C64.6756 222.73 64.6037 222.73 64.4985 222.766C63.9672 222.838 63.7541 223.405 63.613 223.546L63.577 223.582C63.4359 223.864 63.3639 224.147 63.3639 224.432C63.3279 224.927 63.4691 225.351 63.7541 225.705C64.1443 226.272 64.6397 226.698 65.2761 227.016C66.2668 227.512 67.0472 227.725 68.1818 227.725Z" fill="#315818"/>
<path d="M84.5439 228.292C85.0033 228.292 85.3935 228.22 85.7117 228.115C91.6615 226.308 91.9465 217.242 91.9465 211.821V210.299C91.9465 208.954 91.8746 207.642 91.8746 206.474V206.439C91.8746 205.517 91.8386 204.562 91.8386 203.605V202.506C91.8386 202.26 91.8386 201.942 91.8026 201.621C91.7334 199.672 90.7759 199.39 90.2114 199.39H90.1754C89.1819 199.39 88.6866 199.816 88.5455 200.525C88.4043 201.056 88.3324 201.479 88.3324 201.906V202.188C88.3324 203.464 88.3684 204.845 88.3684 206.156C88.3684 209.485 88.3324 212.778 88.2632 216.108C88.1553 217.984 88.0141 219.755 87.6239 221.844C87.3417 223.405 85.994 224.041 85.994 224.041H85.9608C84.757 224.041 84.2948 221.88 83.6943 216.144C83.6584 215.859 83.6584 215.576 83.6584 215.327C83.6224 214.054 83.5864 212.92 83.5864 212.07V212.034C83.5864 211.539 83.5504 211.007 83.5504 210.581V206.189C83.5504 205.943 83.5864 205.625 83.5864 205.271V205.235C83.5864 204.773 83.6943 204.241 83.6943 203.71V202.896C83.6943 201.906 83.4453 201.125 83.0911 200.558C82.6649 199.816 81.9924 199.39 81.1069 199.39H81.0709C80.0442 199.39 79.3026 199.78 78.8764 200.63V200.666C78.5942 201.41 78.417 202.152 78.417 202.932V204.881C78.417 206.048 78.3451 207.252 78.3451 208.492C78.3451 210.404 78.417 212.637 78.5942 215.186C78.6633 216.249 78.9484 219.968 80.0442 223.438C80.5396 224.996 81.2148 226.308 82.1004 227.193C82.7728 227.974 83.5864 228.292 84.5439 228.292Z" fill="#315818"/>
<path d="M99.206 227.938C99.8425 227.938 100.482 227.866 101.154 227.761C102.925 227.371 104.447 226.698 105.582 225.777C106.678 224.996 107.458 224.006 107.918 222.802C108.272 221.916 108.485 220.995 108.485 220.073C108.485 219.863 108.485 219.614 108.449 219.437C108.344 218.233 108.059 217.098 107.527 216.144L107.494 216.002C106.786 214.691 105.51 213.415 103.916 212.388C105.192 211.575 106.182 210.653 106.822 209.663L106.855 209.519C107.386 208.633 107.671 207.606 107.776 206.616C107.812 206.439 107.812 206.19 107.812 205.979C107.812 205.199 107.599 204.349 107.245 203.569C106.786 202.542 106.005 201.657 104.907 200.912C103.775 200.135 102.25 199.531 100.482 199.177C99.8065 199.072 99.17 199 98.5335 199C97.8583 199 97.2578 199.072 96.6905 199.213C96.1592 199.39 95.6998 199.603 95.3815 199.957C95.0965 200.24 94.8502 200.63 94.8502 201.056V202.401C94.8142 202.719 94.7783 203.038 94.7783 203.428V205.871C94.7783 206.367 94.8142 206.829 94.8142 207.324V207.537C94.8142 208.954 94.8502 210.335 94.8502 211.716C94.8502 212.388 94.8834 213.238 94.8834 214.087V214.373C94.8834 215.363 94.9194 216.462 94.9194 217.524C94.9194 218.587 94.9194 219.614 94.8834 220.641C94.8834 220.959 94.8834 221.349 94.8502 221.739C94.8142 222.342 94.7783 222.907 94.7783 223.474V224.147C94.7783 225.068 94.9554 225.849 95.2736 226.413C95.6638 227.122 96.2643 227.725 97.0807 227.725H97.3629C97.9302 227.866 98.5335 227.938 99.206 227.938ZM100.02 209.945C100.02 209.804 100.056 209.591 100.056 209.413V209.377C100.056 209.272 100.056 209.095 100.092 208.987V208.705C100.092 207.961 100.128 207.111 100.128 206.333C100.128 205.271 100.02 204.136 100.02 203.109V202.824C100.02 202.65 100.056 202.506 100.092 202.401C100.128 202.152 100.233 202.083 100.374 202.011C100.446 202.011 100.482 201.975 100.482 201.975C100.728 201.975 100.977 202.047 101.367 202.152C103.102 202.86 104.198 204.1 104.375 205.658V206.19C104.375 206.721 104.306 207.147 104.129 207.642C103.775 208.705 103.066 209.663 101.968 210.476C101.508 210.758 101.19 210.902 100.977 211.007C100.659 210.902 100.374 210.83 100.128 210.794L100.056 210.581C100.02 210.335 100.02 210.158 100.02 209.945ZM100.128 223.615V223.369C100.128 222.165 100.233 220.926 100.233 219.719C100.233 218.8 100.197 217.915 100.197 217.029V216.711C100.161 216.603 100.161 216.39 100.161 216.285V216.249C100.161 216.072 100.128 215.825 100.128 215.612C100.128 215.363 100.128 215.15 100.161 214.94C100.197 214.727 100.338 214.408 100.659 214.373H100.692C100.8 214.373 101.259 214.408 102.322 215.081C103.562 215.966 104.375 217.065 104.766 218.197C104.979 218.764 105.051 219.296 105.051 219.863V220.427C104.837 222.199 103.598 223.582 101.65 224.396C101.223 224.537 100.941 224.609 100.659 224.609C100.659 224.609 100.623 224.573 100.515 224.573C100.374 224.501 100.233 224.396 100.197 224.183C100.161 224.042 100.128 223.792 100.128 223.615Z" fill="#315818"/>
<path d="M117.799 227.725C118.649 227.725 119.429 227.689 120.065 227.653C121.128 227.548 121.8 227.23 122.191 226.698V226.662C122.332 226.344 122.44 226.059 122.44 225.813C122.44 225.528 122.332 225.245 122.191 224.996C122.191 224.963 122.155 224.963 122.155 224.963C121.872 224.432 121.377 224.147 120.669 224.147H120.633L119.642 224.219C119.252 224.255 118.898 224.255 118.471 224.255C118.081 224.255 117.727 224.255 117.34 224.219C116.277 223.97 115.604 223.015 115.391 221.457C115.391 221.313 115.355 221.244 115.355 221.136C115.283 220.5 115.037 217.525 115.037 217.206L115.073 216.213C115.073 215.576 115.851 215.54 116.49 215.54H118.153C118.435 215.576 118.684 215.576 118.898 215.576H119.18C120.242 215.576 120.597 214.868 120.774 214.373C120.846 214.196 120.846 214.018 120.846 213.877C120.846 213.382 120.705 212.992 120.314 212.602L120.278 212.566C119.996 212.247 119.465 212.211 119.039 212.211H117.55C117.409 212.211 117.304 212.247 117.196 212.247C116.913 212.247 116.7 212.247 116.49 212.283H116.064C115.746 212.283 115.568 212.247 115.427 212.175L115.391 212.142C115.283 212.07 115.142 211.857 115.142 211.08C115.178 210.902 115.178 210.759 115.178 210.581C115.25 210.371 115.25 210.194 115.25 210.05V210.017C115.283 208.387 115.427 206.757 115.461 205.094V204.74C115.497 203.854 115.746 203.251 116.1 203.074C116.454 202.933 116.844 202.861 117.34 202.861C117.517 202.861 117.694 202.897 117.835 202.897H119.252C120.278 202.897 120.882 202.614 121.269 202.188C121.59 201.87 121.731 201.552 121.731 201.197C121.731 201.02 121.731 200.912 121.659 200.735C121.269 199.141 118.081 199.39 116.454 199.39H113.867C113.335 199.39 112.912 199.426 112.558 199.495C111.885 199.603 111.39 199.922 111.036 200.558C110.751 201.089 110.573 201.906 110.537 203.11V203.605L110.36 206.544C110.255 209.059 110.396 211.752 110.36 214.409L110.327 214.691C110.291 217.276 110.114 219.755 110.468 221.988C110.573 223.015 110.787 224.183 111.246 225.174C111.777 226.167 112.486 226.875 113.512 227.266H113.548C114.434 227.548 115.461 227.689 116.772 227.689C117.126 227.725 117.481 227.725 117.799 227.725Z" fill="#315818"/>
<path d="M127.928 227.725C128.706 227.725 129.309 227.512 129.735 227.052C130.159 226.557 130.444 225.99 130.513 225.281V225.173C130.549 224.786 130.585 224.432 130.585 224.006C130.585 223.793 130.585 223.546 130.549 223.261C130.408 219.578 130.372 214.373 130.372 211.467V208.492C131.717 211.467 132.921 216.357 134.019 219.083C134.337 219.755 134.623 220.427 134.869 221.103L135.19 221.844C135.295 222.412 135.613 222.802 136.109 223.015C136.145 223.015 136.181 223.051 136.181 223.051H136.286C136.463 223.084 136.607 223.12 136.748 223.12C136.925 223.12 137.102 223.084 137.279 223.015C137.739 222.874 138.057 222.553 138.198 222.129V222.093C138.801 219.437 139.438 216.921 140.146 214.586C140.572 213.169 140.962 211.008 141.317 209.519C141.386 210.548 141.422 211.539 141.422 213.097C141.422 214.619 141.386 216.18 141.353 217.843L141.317 218.41C141.281 220.286 141.245 222.093 141.245 223.759V223.865C141.245 224.219 141.281 224.609 141.386 225.14C141.599 226.698 142.271 227.548 143.334 227.584H143.37C144.043 227.584 144.505 227.299 144.751 226.734C144.928 226.344 145 225.954 145 225.528V225.281L144.574 210.371L144.469 207.997C144.433 207.288 144.433 206.652 144.397 205.979V204.917C144.433 204.668 144.433 204.419 144.433 204.208C144.433 203.746 144.397 203.323 144.361 202.861V202.755C144.328 200.984 143.511 199.886 142.13 199.603C141.953 199.567 141.776 199.567 141.599 199.567C140.749 199.567 140.077 199.922 139.615 200.594C139.05 201.302 138.66 202.083 138.483 202.896C137.81 205.199 136.853 209.095 135.685 214.124C134.587 211.893 133.878 208.282 133.383 207.183L131.894 203.923C131.861 203.746 131.789 203.569 131.717 203.428C131.648 203.251 131.576 203.11 131.54 202.932C130.975 201.338 130.231 199.958 128.141 199.816H128.105L127.998 199.85C126.794 199.85 126.052 200.204 125.662 201.056C125.377 201.657 125.272 202.329 125.272 203.215C125.272 203.323 125.272 203.5 125.308 203.641C125.308 204.419 125.344 205.199 125.344 205.979C125.344 206.757 125.344 207.537 125.377 208.315V216.249C125.413 217.383 125.413 218.551 125.413 219.65C125.413 220.749 125.413 221.88 125.377 222.979V225.281C125.521 226.767 126.262 227.584 127.574 227.689C127.715 227.725 127.82 227.725 127.928 227.725Z" fill="#315818"/>
</svg>
